<?xml version="1.0" standalone="no"?>
<!DOCTYPE svg PUBLIC "-//W3C//DTD SVG 20010904//EN"
 "http://www.w3.org/TR/2001/REC-SVG-20010904/DTD/svg10.dtd">
<svg version="1.0" xmlns="http://www.w3.org/2000/svg"
 width="1280.000000pt" height="640.000000pt" viewBox="0 0 1280.000000 640.000000"
 preserveAspectRatio="xMidYMid meet">
<metadata>
Created by potrace 1.15, written by Peter Selinger 2001-2017
</metadata>
<g transform="translate(0.000000,640.000000) scale(0.100000,-0.100000)"
fill="#000000" stroke="none">
<path d="M10216 4608 c-3 -13 -6 -58 -6 -101 0 -43 -4 -76 -9 -73 -5 3 -12 40
-16 82 -9 97 -21 81 -31 -39 -6 -85 -8 -90 -35 -106 -18 -10 -29 -24 -29 -38
0 -12 -12 -30 -27 -41 l-28 -20 -6 -279 c-3 -153 -12 -561 -18 -908 -13 -677
-22 -816 -35 -555 -5 85 -13 161 -18 168 -6 7 -34 12 -69 12 -50 0 -62 -4 -82
-26 -31 -33 -36 -67 -28 -172 4 -46 3 -85 0 -88 -13 -8 -77 25 -83 43 -10 24
-14 154 -27 768 -5 281 -12 517 -15 525 -3 11 -27 20 -74 28 -109 19 -139 16
-149 -11 -5 -13 -32 -41 -61 -61 -42 -30 -50 -40 -44 -58 4 -12 7 -192 8 -399
l1 -378 -37 2 c-29 1 -42 -4 -54 -22 -15 -21 -22 -22 -103 -20 -138 4 -126 37
-126 -353 l0 -333 -45 -6 c-25 -3 -51 -8 -59 -10 -10 -3 -17 8 -22 30 -8 39
-40 68 -84 76 -63 12 -116 28 -121 37 -7 11 -11 127 -19 628 l-7 405 -40 83
c-40 83 -75 122 -108 122 -23 0 -68 -53 -76 -88 -4 -15 -17 -46 -31 -70 l-24
-42 3 -379 c1 -209 -1 -383 -5 -387 -27 -27 -32 28 -39 434 -5 229 -11 422
-13 429 -6 18 -72 43 -111 43 -42 0 -114 -22 -114 -34 0 -5 -8 -18 -17 -29
-16 -17 -18 -50 -18 -376 l0 -356 -55 -5 -55 -5 0 -90 c0 -86 -13 -124 -25
-73 l-6 23 -264 5 -265 5 -6 115 c-8 139 -4 125 -34 138 -24 11 -25 15 -25
107 l0 96 -35 35 c-30 29 -45 37 -89 41 -45 5 -57 2 -74 -15 -11 -11 -29 -23
-40 -26 -25 -8 -34 -27 -41 -90 -6 -46 -9 -50 -38 -58 -18 -5 -33 -15 -33 -23
0 -8 -9 -19 -20 -25 -18 -10 -20 -21 -20 -110 0 -80 -3 -100 -14 -100 -8 0
-18 5 -22 11 -4 7 -10 93 -13 193 -5 157 -8 181 -22 178 -11 -1 -22 17 -37 60
-12 35 -22 73 -22 86 0 12 -3 22 -7 22 -8 0 -53 -135 -53 -157 0 -7 -4 -13
-10 -13 -5 0 -10 5 -10 10 0 6 -4 10 -9 10 -4 0 -11 -54 -14 -121 -4 -85 -9
-125 -20 -137 -8 -9 -18 -27 -21 -38 -6 -20 -15 -22 -124 -26 -103 -3 -121 -7
-139 -25 -11 -11 -21 -31 -21 -44 0 -13 -5 -53 -11 -89 -6 -36 -11 -113 -11
-172 0 -59 -4 -109 -9 -112 -5 -3 -14 -28 -21 -55 l-12 -50 -41 2 c-23 1 -45
7 -49 12 -4 6 -8 134 -8 286 0 251 -2 279 -18 299 -16 20 -22 21 -57 11 -54
-15 -71 -14 -89 5 -14 13 -16 61 -16 369 0 400 9 361 -90 375 -43 6 -50 9 -32
15 24 8 28 20 10 31 -6 4 -20 -4 -32 -18 -14 -17 -36 -28 -63 -33 -24 -4 -46
-12 -50 -18 -5 -7 -11 -154 -14 -327 -3 -173 -10 -331 -15 -350 -8 -27 -16
-36 -36 -38 -25 -3 -26 -7 -32 -70 -3 -37 -5 -139 -4 -227 1 -88 -2 -175 -6
-192 -7 -30 -10 -32 -34 -27 -15 4 -35 15 -45 26 -13 13 -29 18 -50 16 l-32
-3 -5 105 -5 105 -48 10 c-27 6 -53 18 -58 28 -6 10 -9 93 -7 196 3 179 3 179
-22 206 -24 25 -25 32 -31 213 -4 103 -10 195 -14 205 -6 15 -19 17 -98 15
l-91 -3 -9 -30 c-5 -16 -12 -100 -16 -185 l-6 -155 -83 -3 c-51 -2 -89 2 -97
8 -9 7 -15 44 -18 103 -7 130 -14 154 -50 172 -49 24 -75 19 -117 -25 -38 -39
-38 -41 -45 -137 -3 -54 -7 -109 -8 -123 -1 -16 -12 -29 -29 -38 -17 -8 -30
-24 -34 -40 -3 -15 -7 -32 -9 -39 -3 -8 -42 -12 -131 -12 -110 -1 -130 2 -154
19 -16 11 -32 20 -38 20 -5 0 -26 14 -47 30 -48 38 -95 40 -127 6 -13 -14 -39
-29 -58 -33 l-35 -9 -7 -85 c-3 -46 -6 -161 -7 -256 -1 -110 -5 -174 -12 -178
-6 -4 -13 2 -16 14 -5 21 -14 25 -74 35 -36 6 -37 7 -43 64 -4 31 -9 91 -11
132 -4 67 -42 274 -44 243 -1 -7 -12 -13 -26 -13 -20 0 -29 -10 -48 -52 -39
-85 -40 -89 -48 -173 -5 -44 -12 -107 -16 -140 -8 -58 -9 -60 -40 -63 -41 -4
-44 8 -41 142 3 87 1 100 -16 110 -10 6 -34 23 -53 38 -29 22 -44 27 -88 26
-45 -1 -52 -4 -47 -20 3 -12 -1 -18 -12 -18 -9 0 -21 -12 -27 -27 -14 -37 -38
-63 -54 -57 -14 6 -29 -44 -26 -87 2 -29 -22 -54 -44 -45 -12 4 -15 25 -15
106 0 96 -1 101 -24 111 -17 8 -25 22 -29 52 -8 60 -36 92 -83 93 -60 1 -61 2
-73 34 -8 24 -16 30 -40 30 -23 0 -34 -7 -45 -29 -9 -16 -28 -38 -43 -49 -26
-19 -27 -23 -29 -123 -3 -196 -15 -331 -29 -325 -9 3 -24 -16 -42 -52 -16 -31
-39 -61 -51 -67 -16 -7 -22 -18 -22 -40 0 -17 -5 -36 -12 -43 -13 -13 -64 -16
-71 -4 -2 4 1 224 9 489 40 1516 41 1649 6 1659 -10 3 -30 12 -45 20 -19 9
-61 14 -125 14 -53 0 -102 4 -108 8 -6 4 -14 19 -17 34 -10 41 -60 53 -214 53
-123 0 -134 -2 -154 -22 -20 -20 -25 -21 -49 -8 -25 13 -34 12 -84 -5 -30 -11
-64 -20 -75 -20 -41 0 -45 -21 -51 -276 -3 -175 -9 -247 -18 -256 -6 -6 -12
-19 -12 -28 0 -8 -22 -35 -50 -60 l-49 -45 -10 -185 c-6 -102 -15 -349 -22
-550 -6 -201 -14 -381 -19 -400 -5 -21 -8 -26 -9 -14 -2 37 -28 49 -103 47
l-70 -1 3 141 c4 172 -1 186 -63 181 -24 -2 -97 8 -163 21 -123 25 -225 32
-398 27 -67 -1 -99 -6 -102 -14 -2 -7 -7 -47 -10 -89 l-6 -77 -36 -5 c-27 -5
-42 -1 -60 13 -24 19 -25 19 -64 -2 -31 -16 -48 -19 -77 -13 -20 5 -56 8 -79
8 l-43 0 0 38 c0 52 -16 89 -38 89 -24 0 -72 57 -72 85 0 13 -7 31 -16 39 -19
19 -99 22 -111 4 -4 -7 -8 -325 -8 -706 l0 -693 25 -7 c34 -9 12685 -9 12730
0 l35 8 -3 445 c-1 245 -7 456 -12 469 -8 23 -11 24 -47 13 -48 -14 -51 -16
-33 -27 10 -7 -7 -10 -53 -10 -54 0 -74 4 -94 20 -14 11 -41 20 -60 20 -19 0
-46 6 -62 14 -38 20 -150 6 -187 -23 -15 -12 -38 -21 -51 -21 -13 0 -33 -5
-44 -11 -18 -9 -19 -17 -14 -92 5 -76 4 -84 -17 -109 -30 -35 -67 -29 -67 11
0 61 -25 161 -42 166 -18 6 -29 78 -29 185 0 31 -3 84 -6 117 -6 56 -9 62 -39
76 -29 14 -33 21 -41 74 l-9 58 -60 -4 c-33 -2 -63 -8 -67 -15 -4 -6 -8 -34
-8 -63 0 -47 -3 -53 -27 -65 l-28 -13 4 -200 c3 -172 2 -198 -10 -188 -8 7
-42 13 -74 15 l-60 3 -5 90 c-6 101 -11 115 -44 115 -20 0 -24 6 -30 53 -3 28
-6 94 -6 144 0 93 -25 200 -55 231 -6 7 -44 18 -83 24 -99 14 -102 11 -102
-108 l0 -94 -57 0 c-32 0 -63 -4 -68 -8 -6 -4 -19 -36 -30 -72 -23 -79 -27
-85 -54 -68 -17 10 -21 23 -21 68 0 89 -17 94 -25 8 -5 -58 -11 -77 -26 -87
-17 -10 -24 -8 -48 16 l-28 28 -7 223 c-4 123 -11 234 -16 248 -6 14 -10 51
-10 82 0 63 -14 109 -48 165 -23 36 -42 48 -42 26 0 -6 -8 -8 -18 -5 -18 6
-35 -21 -75 -114 -14 -35 -15 -36 -80 -38 -59 -1 -65 0 -70 21 -9 37 -32 91
-50 118 -30 44 -37 86 -47 279 -13 245 -29 451 -36 461 -3 5 -13 9 -22 9 -9 0
-32 14 -50 31 -29 26 -34 38 -42 102 -15 121 -22 157 -30 157 -4 0 -10 -10
-14 -22z"/>
</g>
</svg>
